<?xml version="1.0" standalone="no"?>
<!DOCTYPE svg PUBLIC "-//W3C//DTD SVG 1.1//EN" "http://www.w3.org/Graphics/SVG/1.1/DTD/svg11.dtd" >
<svg xmlns="http://www.w3.org/2000/svg">
<metadata>
Created by FontForge 20120731 at Tue Feb  2 01:20:40 2016
 By Ads
</metadata>
<defs>
<font id="iconfont" horiz-adv-x="1024" >
  <font-face 
    font-family="iconfont"
    font-weight="500"
    font-stretch="normal"
    units-per-em="1024"
    panose-1="2 0 6 3 0 0 0 0 0 0"
    ascent="896"
    descent="-128"
    x-height="792"
    bbox="-0.25 -212 1024 896"
    underline-thickness="50"
    underline-position="-100"
    unicode-range="U+0078-E623"
  />
<missing-glyph horiz-adv-x="374" 
d="M34 0v682h272v-682h-272zM68 34h204v614h-204v-614z" />
    <glyph glyph-name=".notdef" horiz-adv-x="374" 
d="M34 0v682h272v-682h-272zM68 34h204v614h-204v-614z" />
    <glyph glyph-name=".null" horiz-adv-x="0" 
 />
    <glyph glyph-name="nonmarkingreturn" horiz-adv-x="341" 
 />
    <glyph glyph-name="x" unicode="x" horiz-adv-x="1001" 
d="M281 543q-27 -1 -53 -1h-83q-18 0 -36.5 -6t-32.5 -18.5t-23 -32t-9 -45.5v-76h912v41q0 16 -0.5 30t-0.5 18q0 13 -5 29t-17 29.5t-31.5 22.5t-49.5 9h-133v-97h-438v97zM955 310v-52q0 -23 0.5 -52t0.5 -58t-10.5 -47.5t-26 -30t-33 -16t-31.5 -4.5q-14 -1 -29.5 -0.5
t-29.5 0.5h-32l-45 128h-439l-44 -128h-29h-34q-20 0 -45 1q-25 0 -41 9.5t-25.5 23t-13.5 29.5t-4 30v167h911zM163 247q-12 0 -21 -8.5t-9 -21.5t9 -21.5t21 -8.5q13 0 22 8.5t9 21.5t-9 21.5t-22 8.5zM316 123q-8 -26 -14 -48q-5 -19 -10.5 -37t-7.5 -25t-3 -15t1 -14.5
t9.5 -10.5t21.5 -4h37h67h81h80h64h36q23 0 34 12t2 38q-5 13 -9.5 30.5t-9.5 34.5q-5 19 -11 39h-368zM336 498v228q0 11 2.5 23t10 21.5t20.5 15.5t34 6h188q31 0 51.5 -14.5t20.5 -52.5v-227h-327z" />
    <glyph glyph-name="uniE600" unicode="&#xe600;" 
d="M806 441q42 0 77.5 20.5t56 56t20.5 77.5q0 63 -45 108.5t-109 45.5q-42 0 -77.5 -21t-56 -56.5t-20.5 -76.5q0 -4 0.5 -8t0.5 -7.5t1 -6.5l-324 -125q-46 49 -112 49q-64 0 -109 -45.5t-45 -108.5q0 -42 20.5 -77.5t56 -56t77.5 -20.5q24 0 47 7t42 21l219 -146
q-14 -31 -14 -64q0 -64 45 -109t109 -45q42 0 77.5 20.5t56 56t20.5 77t-20.5 77t-56 56.5t-77.5 21q-63 0 -107 -44l-212 141q12 19 18.5 40.5t6.5 44.5q0 29 -11 57l311 119q20 -35 56 -56.5t78 -21.5z" />
    <glyph glyph-name="uniE601" unicode="&#xe601;" 
d="M821 366h-84v155q0 94 -60.5 160.5t-145.5 66.5h-38q-56 0 -103.5 -30.5t-75 -83t-27.5 -113.5v-155h-84q-17 0 -29 -13t-12 -32v-423q0 -19 12 -32t29 -13h618q17 0 29 13t12 32v423q0 12 -5.5 22.5t-15 16.5t-20.5 6zM512 -68q-32 0 -55 25t-23 61q0 22 9.5 41t26.5 31
v148q0 18 12 30.5t29 12.5t29 -12.5t12 -30.5v-147q38 -25 38 -73q0 -36 -23 -61t-55 -25zM671 366h-310v138q0 63 41.5 107.5t99.5 44.5h27q38 0 71 -20t52 -55.5t19 -76.5v-138z" />
    <glyph glyph-name="uniE602" unicode="&#xe602;" 
d="M737 746h-450q-22 0 -38 -16t-16 -38v-786q0 -22 16 -38t38 -16h450q22 0 38 16t16 38v786q0 14 -7 26.5t-19.5 20t-27.5 7.5zM462 678h100q3 0 5 -0.5t4 -2t3 -3t2 -4t1 -4.5q0 -3 -1.5 -5.5t-3 -4.5t-4.5 -3t-6 -1h-100q-6 0 -10 4t-4 10t4 10t10 4zM512 -106
q-18 0 -31 13t-13 31.5t13 31.5t31.5 13t31.5 -13t13 -31q0 -12 -6 -22.5t-16.5 -16.5t-22.5 -6zM739 20h-453v582h453v-582zM739 20z" />
    <glyph glyph-name="uniE603" unicode="&#xe603;" 
d="M510 830q-73 0 -141 -22.5t-123.5 -64t-96.5 -96.5t-64 -123.5t-23 -141.5q0 -186 131.5 -317t316.5 -131q92 0 174.5 35.5t142.5 95.5t95.5 143t35.5 174q0 185 -131 316.5t-317 131.5zM663 212l-16 -16q-7 -7 -16 -7t-16 7l-145 145q-4 5 -4 25v285q0 9 6.5 15.5
t15.5 6.5h22q10 0 16.5 -6.5t6.5 -15.5v-278l130 -130q6 -6 6 -15.5t-6 -15.5z" />
    <glyph glyph-name="uniE604" unicode="&#xe604;" 
d="M386 -25q-16 0 -30.5 2.5t-28 7t-26.5 11.5q-19 11 -35 28t-30 38q-2 3 -5 10q-20 37 1 89t75 94q15 12 30.5 21.5t31 15.5t30.5 9.5t29 3.5q42 0 63 -29q2 -1 3.5 -2t4 -1.5t4.5 -0.5h1q1 0 2.5 1t3.5 3v1q31 40 57 85q24 42 41 85q2 11 -1 15q-1 1 -3 1q-30 1 -52 26
q-20 24 -28 63t-3 85q9 70 43.5 117t76.5 47h1q2 0 4 -0.5t4 -0.5q52 2 94 -21q62 -36 85 -117.5t2.5 -188.5t-81.5 -215q-89 -157 -215 -235q-79 -48 -149 -48zM428 258q-42 0 -92 -39q-39 -31 -57.5 -67.5t-9.5 -55.5q2 -2 5 -7q20 -35 50 -52q9 -5 19 -8.5t20.5 -5.5
t22.5 -2q51 0 110 33t115 92t98 135q53 93 73.5 188.5t4 168t-65.5 100.5q-31 18 -71 16h-6h-3q-22 0 -44.5 -36t-29.5 -87q-2 -24 -1 -45t6.5 -38.5t14.5 -27.5t18 -10q23 0 39 -19q8 -10 10.5 -24t-1.5 -31q0 -3 -1 -4q-9 -24 -20.5 -47t-24.5 -46q-9 -16 -19 -32
t-20.5 -31t-21.5 -30l-4 -4q-5 -5 -11.5 -9t-13.5 -6t-14 -2q-6 0 -11.5 1.5t-10 3t-8.5 3.5t-7 4t-4.5 3.5t-2.5 1.5q-3 3 -5 6q-6 10 -26 10v0zM355 415q-9 0 -15.5 5.5t-7.5 13.5q-6 33 13 61t52 34q10 2 18 -4t9.5 -15.5t-4 -17.5t-14.5 -9q-15 -3 -23 -14.5t-5 -26.5
q2 -9 -4 -17t-15 -10h-2h-2zM275 416q-8 0 -14.5 5.5t-8.5 14.5q-10 58 23.5 107t91.5 59q10 2 18 -3.5t10 -15.5v-6q0 -3 -1 -6t-3 -5.5t-4 -4.5t-5 -3l-6 -2q-39 -7 -62 -40t-15 -72q0 -5 -1 -9.5t-3.5 -8t-6.5 -6t-8 -3.5l-5 -1v0zM185 391q-6 0 -11 2.5t-8 6.5t-4 10
q-19 100 39 184t158 102q10 2 18 -3.5t9 -15.5q2 -6 -0.5 -12t-7 -10t-10.5 -5q-40 -7 -73 -28.5t-55 -54.5q-47 -68 -32 -149q2 -9 -3.5 -17t-15.5 -10h-4zM185 391z" />
    <glyph glyph-name="uniE605" unicode="&#xe605;" 
d="M310 318q-2 0 -3 -0.5t-2 -0.5q2 1 5 1zM845 104v2q0 1 1 1q-1 0 -1 -3zM881 499zM845 499zM867 -37q-8 56 -33 107l-10 20q-24 40 -58 74l-16 14q-56 49 -126 71q13 7 24 16q7 5 13 10.5t12 10.5q64 65 64 155.5t-64 154.5q-30 31 -69.5 47.5t-82.5 17.5h-2h-3
q-89 -2 -152 -65q-20 -20 -34.5 -45t-22 -52.5t-7.5 -57.5q0 -90 64 -155q12 -11 25 -21q4 -3 8 -5l8 -6q4 -2 8 -5q-70 -22 -126 -71q-8 -7 -15 -14q-34 -34 -58 -74q-6 -10 -11 -20q-25 -51 -32 -107q-2 -9 3.5 -16.5t14.5 -8.5h3h3q15 3 17 18q15 104 91 180
q43 44 99 68.5t117 24.5q25 0 49 -4t46.5 -12t43.5 -19.5t40.5 -25.5t36.5 -32q36 -36 59.5 -82.5t30.5 -97.5q2 -15 17 -18h3h3q6 1 10.5 4.5t6.5 9t2 11.5zM518 266h-1q-61 1 -110.5 38.5t-64.5 95.5v2q-5 20 -5 39.5t5 39.5v3q15 59 65 99.5t111 40.5h1q61 0 111 -40.5
t65 -99.5q1 -2 1 -3q5 -20 5 -39.5t-5 -39.5q-1 -1 -1 -2q-10 -38 -35.5 -68.5t-62 -48t-77.5 -17.5h-2z" />
    <glyph glyph-name="uniE606" unicode="&#xe606;" 
d="M891 -35h-751q-14 0 -24.5 10.5t-10.5 23.5v213q0 26 11 37t25 -2l102 -79q33 -29 45 -14l117 141q29 36 45 22l101 -87q40 -34 53 -18l249 301q25 28 48 22.5t23 -40.5v-496q0 -5 -1.5 -10t-4.5 -9.5t-7.5 -8t-9.5 -5t-10 -1.5zM599 334q-7 -9 -17 -14.5t-21 -7t-22 2
t-19 10.5l-113 96l-114 -150q-15 -19 -37 -22h-4h-3q-5 0 -9.5 1t-9 2.5t-8.5 3.5t-8 5l-99 81q-17 15 -19.5 37.5t11.5 40.5q6 7 13.5 12t16 7t17 1.5t16.5 -3.5t15 -9l55 -45l114 151q14 18 37.5 21t41.5 -13l114 -95l147 184l-41 34q-22 18 -18 35t32 23l213 45
q28 6 35 -6t-10 -34z" />
    <glyph glyph-name="uniE607" unicode="&#xe607;" 
d="M445 632q-44 -49 -141.5 -152t-141.5 -152q-23 -26 -20.5 -45t14.5 -29.5t23 -10.5h83v-247q0 -11 4 -23t11 -21t17 -15t22 -6h122l-1 224h166v-224h122q21 0 37.5 20.5t16.5 62.5v229h65q24 0 33.5 22.5t-8.5 48.5q-40 47 -135 155t-140 161q-78 77 -149 2z" />
    <glyph glyph-name="uniE608" unicode="&#xe608;" 
d="M508 -146q-97 0 -181.5 35t-142.5 95.5t-91 143t-33 174.5q0 91 35.5 174t95.5 143t143 95.5t174.5 35.5t174.5 -35.5t143 -95.5t95.5 -143t35.5 -174q0 -123 -56 -225.5t-159.5 -162.5t-233.5 -60zM508 692q-106 0 -196 -52t-142 -142t-52 -196q0 -150 101 -262
q28 14 50.5 17t59.5 18q34 14 57.5 24.5t29.5 14.5l7 3v72q-3 2 -8 7.5t-15 28.5t-14 53q-12 -3 -17.5 9t-6.5 28q-1 2 -2 12.5t-1 17.5t0.5 15.5t4 12.5t9.5 3q-8 59 -6 79q4 44 43.5 79t98.5 38q35 -1 62 -12t43.5 -28t25 -36t10.5 -41q2 -19 -6 -79q5 1 8 -1t4 -6.5
t1.5 -9.5t0.5 -12t-0.5 -12t-1.5 -11t-1 -9q-1 -16 -7 -28t-17 -9q-2 -14 -5 -26t-6.5 -21t-7 -16t-7 -12t-6 -8t-4.5 -4l-2 -2l1 -71q18 -10 94 -41q37 -16 59 -19.5t50 -17.5q102 112 102 262q0 106 -52.5 196t-142.5 142t-196 52zM508 692z" />
    <glyph glyph-name="uniE609" unicode="&#xe609;" 
d="M572 439q0 -25 -17.5 -43t-42.5 -18t-42.5 18t-17.5 43t17.5 42.5t42.5 17.5q16 0 30 -8t22 -22t8 -30zM381 438.5q0 -16.5 -8 -30t-22 -22t-30 -8.5q-7 0 -14 2t-13 5t-11 7t-9.5 9t-7.5 11t-4.5 13t-1.5 14q0 25 18 42.5t43 17.5q16 0 30 -8t22 -22t8 -30.5zM765 439
q0 -25 -17.5 -43t-42.5 -18t-43 18t-18 43q0 12 5 23t13 19.5t19.5 13t23.5 4.5q25 0 42.5 -17.5t17.5 -42.5zM831 791h-633q-16 0 -31 -5t-27.5 -14.5t-22 -21.5t-14.5 -27.5t-5 -31.5v-502q0 -20 8 -38.5t21.5 -32t32 -21.5t38.5 -8h25v-126l143 126h465q27 0 50 13.5
t36.5 36.5t13.5 50v502q0 27 -13.5 50t-36.5 36.5t-50 13.5zM869 189q0 -16 -11 -27t-27 -11h-476v0h-1q-3 0 -6 -1t-5.5 -2t-5 -2.5t-4.5 -3.5l-48 -42v18v2q0 12 -9 21t-21 10h-57q-5 0 -10 1.5t-9 4t-7.5 6t-6 7.5t-4 9t-1.5 10v502q0 16 11 27.5t27 11.5h633
q10 0 19 -5.5t14 -14t5 -19.5v-502z" />
    <glyph glyph-name="uniE60A" unicode="&#xe60a;" 
d="M28 390v-177q160 -4 272.5 -119t112.5 -275v-21h177v8v10q0 154 -75 285t-204.5 208.5t-282.5 80.5zM29 803v-173q164 -4 312.5 -70t256 -175.5t171 -260t63.5 -315.5v-11h171v15q0 134 -34.5 261t-97.5 235t-152.5 199t-196.5 155.5t-233.5 101t-259.5 38.5zM146 34
q-49 0 -84 -35t-35 -84t35 -83.5t84 -34.5t83.5 34.5t34.5 83.5t-34.5 84t-83.5 35z" />
    <glyph glyph-name="uniE60B" unicode="&#xe60b;" 
d="M848 -149h-673q-30 0 -56 15t-41 41t-15 56v673v4q0 1 0.5 3t0.5 3l172 -124q114 -83 275 -83t275 83l173 124v-3q1 -5 1 -7v-673q0 -59 -50 -92q-29 -19 -62 -20zM679 90q0 5 -4 9.5t-10 4.5h-126v56h126q6 0 10 4t4 10v28q0 6 -4 10t-10 4h-64l76 136q4 7 -7 14l-23 14
q-3 1 -5.5 2t-4.5 1t-3.5 -1t-2.5 -2l-89 -160q-1 -1 0 -4h-17h-28h-9l-88 152q-5 7 -17 0l-24 -14q-12 -7 -8 -14l72 -124h-66q-6 0 -10 -4t-4 -10v-28q0 -6 4 -10t10 -4h126v-56h-126q-3 0 -5.5 -1.5t-4.5 -3t-3 -4.5t-1 -5v-28q0 -4 2 -7.5t5 -5t7 -1.5h126v-70
q0 -6 4 -10.5t10 -4.5h28q6 0 10 4.5t4 10.5v70h126q6 0 10 4t4 10v28zM291 561l-202 146q16 19 38.5 30t47.5 11h673q52 0 86 -41l-203 -146q-60 -43 -140 -58.5t-160 0t-140 58.5z" />
    <glyph glyph-name="uniE60C" unicode="&#xe60c;" 
d="M878 231q0 -24 -11.5 -44.5t-31 -32t-42.5 -11.5h-5q-3 0 -5.5 0.5t-4.5 0.5h-1q-4 -3 -9 -6l-1 -1q2 -16 2 -30q0 -63 -38.5 -138t-100 -128t-120.5 -53t-120.5 53t-99.5 128t-38 138q0 15 1 32q0 1 -1 1l-6 4q-8 -1 -15 -1q-35 0 -60 26t-25 62q0 24 11 44t30 32
q1 0 1 1v3v3q-4 22 -6 46.5t-2 49.5v16v14l2 14v14l2 14t2 13.5t2 12.5q2 56 30.5 103t75.5 73q3 2 7 4l8 4q6 3 12.5 5.5t12.5 4.5l14 4q6 2 13 3l14 2q68 13 154 13q27 0 53 -2q73 -6 105 13q17 8 17 24v3v3q0 29 -24 45q-1 0 -1 1t1 1q42 -8 72 -38t37 -72h1v-1q1 0 1 -1
q13 -49 22 -103q22 -42 23 -89q4 -22 6 -47t2 -51q0 -50 -8 -96v-3v-3l1 -1q19 -12 30 -32t11 -44z" />
    <glyph glyph-name="uniE60D" unicode="&#xe60d;" 
d="M778 -128q26 46 42.5 94t23 99t0 97.5t-32.5 88t-69 71t-114 46t-164 14.5v-254l-384 384l384 384v-248q98 2 178.5 -17.5t136 -55.5t94 -86.5t55 -109.5t15.5 -124.5t-20 -131t-56 -130.5t-89 -121z" />
    <glyph glyph-name="uniE60E" unicode="&#xe60e;" 
d="M936 682h-263q-77 0 -131 -52q-6 -5 -11.5 -11.5t-10 -13t-8.5 -13.5q-14 23 -30 38q-26 25 -60 38.5t-71 13.5h-263q-10 0 -17.5 -7t-7.5 -17v-660q0 -6 3.5 -11.5t9 -9t12.5 -3.5h236q16 0 30 -2q15 -3 29 -8l120 -44h1q4 -2 8 -2q2 0 4 0.5t4 1.5h1l115 42l34 9
q17 3 35 3h231q10 0 17.5 7t7.5 17v660q0 10 -7.5 17t-17.5 7zM363 19q-9 1 -19 2t-20 1h-211v612h238q13 0 26.5 -2.5t25.5 -7t23 -12t21 -16.5q19 -18 29.5 -42t10.5 -50v-527l-86 31q-18 7 -38 11zM911 22h-206q-23 0 -44 -4q-6 -1 -11.5 -2t-10.5 -2.5t-10.5 -3.5
t-10.5 -3l-81 -30v527q0 27 10.5 50.5t29.5 41.5q10 9 21 16.5t23 12t25.5 7t26.5 2.5h238v-612z" />
    <glyph glyph-name="uniE60F" unicode="&#xe60f;" 
d="M509 673q9 0 16 -2t12 -5t8.5 -7.5t6 -9.5t4.5 -11.5t3 -12.5t3 -14t3 -13q6 -20 12.5 -43.5t12 -43.5t11.5 -43t11.5 -43t12 -43t12.5 -43h1h1q11 26 34 78t34 78q3 4 9.5 8t15 5.5t16.5 -1.5q9 -3 15 -10.5t9 -13.5t7 -19t6 -18q11 -29 32 -82.5t27 -69.5h106
q2 0 13 0.5t17.5 0t11.5 -2.5q15 -6 21 -24q2 -5 2 -10.5t-1.5 -10.5t-4.5 -9q-4 -6 -11.5 -9.5t-19.5 -5t-20.5 -1.5t-24.5 0.5t-22 0.5q-4 0 -33.5 -1t-49.5 -0.5t-28 5t-22.5 37t-26.5 65t-16 47.5h-1q-1 0 -1 -1q-36 -82 -73 -167q-6 -8 -18 -13t-25 -1q-9 3 -15.5 12.5
t-9 18t-6 24t-5.5 21.5q-12 42 -35 127q-15 54 -22 80l-1 -2q-12 -61 -39.5 -197t-41.5 -208q-2 -9 -6 -36.5t-7.5 -46t-12.5 -36.5t-21 -22q-9 -4 -16 -2t-12 4t-9 8t-6.5 11t-5 13.5t-3.5 14.5t-3 14l-3 12q-11 44 -71 274h-1q-4 -21 -14.5 -44t-23.5 -28q-6 -3 -14 -3.5
t-23 0t-17 0.5q-9 0 -32.5 -1t-40 -1t-36.5 1.5t-33 6.5t-17 14q-20 46 45 51q19 1 63 -1q50 -2 65 2q11 29 41 108q2 3 5.5 14.5t7 18t9 10.5t13 6t16 1t14.5 -5q9 -6 14.5 -18.5t9.5 -35t6 -27.5l56 -217h1q12 59 38.5 191.5t39.5 202.5q3 11 7 42t9.5 56t11.5 35
q2 3 5 5.5t5.5 4t6.5 3t6 3.5z" />
    <glyph glyph-name="uniE610" unicode="&#xe610;" 
d="M922 465q0 15 -10.5 25.5t-25.5 10.5h-787q-15 0 -25.5 -10.5t-10.5 -25.5v-533q0 -15 10.5 -25.5t25.5 -10.5h787q10 0 18.5 5t13 13t4.5 18v136h-225h-1h-1q-54 0 -92.5 38t-38.5 92q0 18 5 35t13 31.5t20.5 26.5t26.5 20.5t31 13t35 4.5h2h225v136zM618 198
q0 -21 10.5 -38.5t28 -28t38.5 -10.5q12 0 24 4t21.5 11t16.5 16.5t11 21.5t4 24q0 16 -6 30t-16.5 24.5t-24.5 16.5t-30 6q-13 0 -24.5 -3.5t-21 -11t-16.5 -17t-11 -21t-4 -24.5zM836 534l-44 156q-4 11 -14.5 17t-22.5 3l-620 -176h701z" />
    <glyph glyph-name="uniE611" unicode="&#xe611;" 
d="M853 675h-138v-151q0 -21 -8.5 -36t-20.5 -15h-352q-12 0 -20.5 15t-8.5 36v151h-134q-14 0 -27 -5t-22 -14.5t-14.5 -22t-5.5 -26.5v-751q0 -28 20 -48t49 -20h682q29 0 49 20t20 48v751q0 28 -20 48t-49 20zM410 541h204q15 0 25 10t10 24v100q0 10 -5 17.5t-12.5 12.5
t-17.5 5h-2q1 4 1.5 8t0.5 9q0 10 -2.5 19.5t-7.5 18t-12 15.5t-16 13t-19 10.5t-21.5 6.5t-23.5 2q-42 0 -72 -25t-30 -60q0 -9 2 -17h-2q-10 0 -17.5 -5t-12.5 -12.5t-5 -17.5v-100q0 -14 10 -24t25 -10zM444 744h136v-69h-136v69z" />
    <glyph glyph-name="uniE612" unicode="&#xe612;" 
d="M484 705q-13 8 -72.5 40t-77.5 42q-13 8 -22 6t-15.5 -7t-10.5 -16.5t-6.5 -21t-3.5 -21.5q-1 -18 -1 -35t10 -29.5t30 -12.5h159q31 0 33.5 20t-23.5 35zM764 728q-1 12 -3.5 21.5t-7 20.5t-10.5 16.5t-15.5 7.5t-21.5 -6q-17 -10 -77 -42t-74 -41q-12 -7 -18 -16.5
t-5 -18t9.5 -14.5t24.5 -6h159q48 0 39 78zM16 534v-99q0 -30 13 -43t48 -13h362v204h-363q-51 0 -58 -29q-2 -9 -2 -20zM1014 529q0 27 -14.5 40.5t-49.5 13.5h-357v-204h360q24 0 37.5 6t18.5 17.5t5 30.5v96zM57 -84q1 -58 35.5 -89t105.5 -31h239v508h-380v-388z
M593 304v-508h232q47 0 78 15.5t45.5 42.5t15.5 66v384h-371z" />
    <glyph glyph-name="uniE613" unicode="&#xe613;" 
d="M463 88q-11 -10 -26.5 -12t-27.5 6l-9 9l-183 183q-9 8 -12 19t0 22t12 19q6 7 14.5 10t17 2.5t16.5 -4.5t15 -10l151 -152l286 287q14 13 32 14t31 -12t13 -30.5t-13 -30.5l-317 -320v0zM512 698q-67 0 -129.5 -21t-112.5 -59t-88 -88t-59 -112.5t-21 -129.5
q0 -111 55 -205.5t149.5 -149.5t205.5 -55t205.5 55t149.5 149.5t55 205.5q0 67 -21 129.5t-59 112.5t-88 88t-112.5 59t-129.5 21v0z" />
    <glyph glyph-name="uniE614" unicode="&#xe614;" 
d="M512 748q-91 0 -174 -35.5t-143 -95.5t-95.5 -143t-35.5 -174t35.5 -174t95.5 -143t143 -95.5t174 -35.5t174 35.5t142.5 95.5t95 143t35.5 174t-35.5 174t-95 143t-142.5 95.5t-174 35.5zM372 62v476l412 -238z" />
    <glyph glyph-name="uniE615" unicode="&#xe615;" horiz-adv-x="1025" 
d="M511 812q-104 0 -198.5 -40.5t-163 -109t-109 -163.5t-40.5 -200q0 -104 40.5 -198.5t109 -163t163 -109t198.5 -40.5q105 0 200 40.5t163.5 109t109 163t40.5 198.5q0 105 -40.5 200t-109 163.5t-163.5 109t-200 40.5zM455 74h-170v453h170v-453zM738 74h-169v453h169
v-453z" />
    <glyph glyph-name="uniE616" unicode="&#xe616;" 
d="M1003 579q-5 -35 -29 -60l-390 -389q-29 -30 -72 -30t-72 30l-390 389q-12 12 -19.5 27.5t-9.5 32.5q-1 -7 -1 -13v-532q0 -42 30.5 -72.5t72.5 -30.5h778q42 0 72.5 30.5t30.5 72.5v532q0 6 -1 13zM584 204l408 408q-12 26 -37 41.5t-54 15.5h-778q-29 0 -54 -15.5
t-37 -41.5l408 -408q29 -30 72 -30t72 30z" />
    <glyph glyph-name="uniE617" unicode="&#xe617;" 
d="M915 446h-217q9 20 16 53.5t10 77.5t-2 86q-4 26 -12.5 48.5t-22.5 40.5t-32.5 31.5t-39.5 20.5q-33 11 -64.5 6.5t-50.5 -23.5q-13 -14 -25 -40t-17.5 -46.5t-15.5 -60.5q-4 -19 -7 -30t-7.5 -26.5t-8.5 -26t-8 -18.5q-17 -27 -45 -50t-50 -33t-31 -10h-102
q-4 0 -8.5 -1t-8 -2.5t-6.5 -4t-5.5 -6t-4.5 -7t-3 -7.5t-1 -8v-512q0 -15 11 -26t26 -11h99q10 0 52 -18t104 -36.5t120 -18.5h247q37 0 78 15t58.5 44t50 237t32.5 252t-35 77t-74 33zM37 446q-16 0 -26.5 -10.5t-10.5 -25.5v-512q0 -10 5 -18.5t13.5 -13.5t18.5 -5
q7 0 14 3t11.5 8t7.5 11.5t3 14.5v512q0 7 -3 14t-7.5 11.5t-11.5 7.5t-14 3z" />
    <glyph glyph-name="uniE618" unicode="&#xe618;" 
d="M915 154h-217q14 -32 22.5 -95t1.5 -122q-7 -52 -35 -89t-72 -52q-11 -4 -22 -6t-21.5 -2t-21 1.5t-19.5 4.5t-17 8t-14 11q-10 11 -18.5 26t-16 37.5t-11.5 38t-12 45.5q-6 26 -9.5 40t-10 32.5t-11.5 28.5q-24 39 -66.5 66t-59.5 27h-102q-10 0 -18.5 5t-13.5 13t-5 18
v512q0 8 3 14.5t8 11.5t11.5 8t14.5 3h99q9 0 37.5 11.5t62 25t82.5 25t94 11.5h247q8 0 16.5 -1t18 -2.5t19.5 -4t19.5 -6t19 -8t17.5 -10t15 -12.5t12 -15q17 -29 49.5 -237t32.5 -252t-35 -77t-74 -33zM37 154q-8 0 -14.5 3t-11.5 7.5t-8 11.5t-3 14v512q0 15 10.5 26
t26 11t26 -11t10.5 -26v-512q0 -15 -10.5 -25.5t-25.5 -10.5z" />
    <glyph glyph-name="uniE619" unicode="&#xe619;" 
d="M512 768q159 0 271.5 -112.5t112.5 -271.5t-112.5 -271.5t-271.5 -112.5t-271.5 112.5t-112.5 271.5t112.5 271.5t271.5 112.5zM512 832q-122 0 -225 -60t-163 -163t-60 -225t60 -225t163 -163t225 -60t225 60t163 163t60 225t-60 225t-163 163t-225 60zM320 448
q-27 0 -45.5 -18.5t-18.5 -45.5t18.5 -45.5t45.5 -18.5t45.5 18.5t18.5 45.5t-18.5 45.5t-45.5 18.5zM512 448q-27 0 -45.5 -18.5t-18.5 -45.5t18.5 -45.5t45.5 -18.5t45.5 18.5t18.5 45.5t-18.5 45.5t-45.5 18.5zM704 448q-27 0 -45.5 -18.5t-18.5 -45.5t18.5 -45.5
t45.5 -18.5t45.5 18.5t18.5 45.5t-18.5 45.5t-45.5 18.5z" />
    <glyph glyph-name="uniE61A" unicode="&#xe61a;" 
d="M954 569v43q0 17 -6.5 33t-17.5 27.5t-26.5 18t-33.5 6.5h-728q-36 -2 -58 -19.5t-22 -49.5v-530q2 -34 26.5 -58t59.5 -24h46h167q20 0 31.5 7.5t11.5 24.5q0 11 -6 19.5t-15.5 12.5t-21.5 4h-182q-26 1 -36 8.5t-13 27.5v474q1 6 3 10.5t4.5 8.5t6.5 6.5t9 4t11 2.5
t14 2h707v-1l-56 1q32 -1 43 -9t13 -33v-462q-2 -24 -11.5 -32t-37.5 -9h-295q-7 2 -14.5 1t-14.5 -5q-10 -5 -15 -13l-169 -166q-13 -14 -15.5 -30.5t9.5 -29.5q13 -12 30 -9t31 16l171 169h270h46q24 0 43 11.5t29.5 31t10.5 43.5v43h1v424zM885 83h-22h22zM829 628h-29
h29zM559 356q0 10 -4 19.5t-11 16.5t-16.5 11t-19.5 4q-14 0 -26 -7t-19 -18.5t-7 -25.5q0 -22 15 -36.5t37 -14.5q13 0 25 6.5t19 18.5t7 26zM267 356q0 -14 7 -26t19 -18.5t26 -6.5q21 0 36 14.5t15 36.5q0 10 -4 19.5t-11 16.5t-16.5 11t-19.5 4q-9 0 -16.5 -2.5
t-14 -7.5t-11 -11t-7.5 -14t-3 -16zM748 355.5q0 21.5 -15 36.5t-37 15q-14 0 -25.5 -7t-18.5 -18.5t-7 -25.5q0 -11 4 -20.5t11 -16t16.5 -10.5t19.5 -4q22 0 37 14.5t15 36z" />
    <glyph glyph-name="uniE61B" unicode="&#xe61b;" 
d="M587 286q23 11 36 19.5t32 24.5t28 38.5t9 50.5q0 69 -53 112.5t-137 43.5q-17 0 -34 -3t-32.5 -8.5t-30 -13t-27 -17.5t-23 -21.5t-18.5 -25t-14 -28.5q-12 -35 -6 -66q3 -12 14 -19t23 -4q12 2 19 13t4 23q-3 14 4 32q7 20 22.5 37t41.5 28.5t57 11.5q57 0 93 -26.5
t36 -68.5q0 -28 -16 -43.5t-55 -35.5q-21 -10 -32.5 -17.5t-28.5 -21.5t-25.5 -33t-8.5 -42v-60q0 -13 9 -22t22 -9t22 9t9 22v60q0 10 3 17.5t11 14.5t18 12.5t28 15.5zM513 762q-62 0 -121 -15.5t-112 -46t-97 -74.5q-66 -66 -101 -151t-35 -179q0 -54 12 -106.5t35 -98
t55 -86t72.5 -72.5t86.5 -55t98 -35.5t107 -12.5q155 0 281 96q7 8 7 18q0 7 -3.5 13.5t-10 10t-13.5 3.5q-10 0 -18 -7l-1 -1q-35 -26 -74.5 -43.5t-81.5 -27t-86 -9.5q-83 0 -159 32.5t-131 87.5t-87.5 131t-32.5 159.5t32.5 159t87.5 130.5t131 87.5t159 32.5
q56 0 109 -14.5t98 -41t82.5 -64.5t64 -83t41.5 -98t15 -109q0 -103 -47 -191v-2q-1 -5 -1 -7q0 -8 3.5 -14t9.5 -9.5t13 -3.5t13 3l10 10q1 1 2 3v1q53 102 53 213q0 95 -37 181.5t-99.5 148.5t-149 99t-180.5 37zM496 62zM453 62q0 18 12.5 30.5t30.5 12.5q7 0 13.5 -2.5
t11.5 -6t9 -9t6.5 -12t2.5 -13.5q0 -18 -12.5 -30.5t-30.5 -12.5t-30.5 12.5t-12.5 30.5z" />
    <glyph glyph-name="uniE61C" unicode="&#xe61c;" 
d="M512 788q-80 0 -154.5 -24.5t-134.5 -69.5t-105 -105t-69.5 -134.5t-24.5 -154.5t24.5 -154.5t69.5 -134.5t105 -105t134.5 -69.5t154.5 -24.5q99 0 189.5 38.5t156 104t104 156t38.5 189.5t-38.5 189.5t-104 156t-156 104t-189.5 38.5zM769 97l-54 -54l-203 203
l-203 -203l-54 54l203 203l-203 203l54 54l203 -203l203 203l54 -54l-203 -203z" />
    <glyph glyph-name="uniE61D" unicode="&#xe61d;" horiz-adv-x="1025" 
d="M320 504q-5 0 -11 -1.5t-11 -4.5t-8.5 -7t-6 -9t-2.5 -11q0 -10 6 -17.5t15 -11.5t18.5 -4t17 4t11.5 11.5t4 17.5q0 15 -9 24t-24 9zM502 438q6 0 11 1.5t9 4.5t7 7t4.5 9t1.5 11q0 15 -9 24t-24 9t-27 -9.5t-12 -23.5t12 -23.5t27 -9.5zM512 812q-139 0 -257 -68.5
t-186.5 -186.5t-68.5 -257t68.5 -257t186.5 -186.5t257 -68.5q104 0 199 40.5t163.5 109t109 163.5t40.5 199q0 188 -122 332q-116 136 -292 171q-49 9 -98 9zM405 168q-9 0 -18 0.5t-20 2.5t-15.5 2.5t-19.5 4t-18 3.5l-91 -46l26 79q-104 74 -104 178q0 93 76 158.5
t184 65.5q96 0 170.5 -53t91.5 -132q-4 0 -8 0.5t-9 0.5h-8q-92 0 -156.5 -60.5t-64.5 -147.5q0 -27 8 -55q-12 -1 -24 -1zM788 76l20 -66l-72 39q-52 -13 -78 -13t-51 5t-46.5 14.5t-41 22.5t-34.5 29.5t-25.5 35.5t-16.5 40.5t-6 43.5q0 20 4.5 39t13 35.5t20.5 32
t26.5 28.5t32.5 23.5t37.5 17.5t41.5 11t45 4q89 0 155 -56.5t66 -134.5q0 -82 -91 -151zM730 313q-10 0 -18 -8.5t-8 -17.5q0 -7 3.5 -13t9.5 -10t13 -4q14 0 23 8t9 18.5t-9 18.5t-23 8zM587 313q-10 0 -18 -8.5t-8 -17.5q0 -7 3.5 -13t9.5 -10t13 -4q5 0 10.5 1.5t9.5 4
t6.5 6t4 7.5t1.5 8q0 10 -9 18t-23 8z" />
    <glyph glyph-name="uniE61E" unicode="&#xe61e;" 
d="M512 764q-76 0 -146.5 -23.5t-127.5 -66.5t-100 -100t-66.5 -127.5t-23.5 -146.5q0 -94 36.5 -180t99 -148.5t148.5 -99t180 -36.5t180 36.5t148.5 99t99 148.5t36.5 180q0 76 -23.5 146.5t-66.5 127.5t-100 100t-127.5 66.5t-146.5 23.5zM718 187q-1 -2 -2 -5t-5 -12
t-8.5 -17.5t-11.5 -20t-15 -21.5l5 -3q3 -1 11.5 -6t14 -11t10 -16.5t3.5 -22.5q0 -2 -0.5 -5.5t-6 -11.5t-15 -14t-31 -10t-50.5 -4q-3 1 -8 1.5t-19 3t-25.5 6.5t-24 11t-18.5 15h-20q-10 -14 -33.5 -23t-42.5 -11l-19 -3q-29 0 -50.5 4.5t-31 10t-15 14t-6 11t-0.5 5.5
q-2 19 9 33.5t23 19.5l12 6q-8 10 -15 21.5t-11.5 20.5t-8 17t-5.5 12l-2 5q-49 -80 -57 -16q-1 9 -1 30q5 32 21.5 61.5t28.5 43t13 13.5q-1 11 -1 20t1 16t2.5 13t3 10t3.5 7t4 5t3.5 3t2.5 2h1q1 41 11.5 74t25.5 53t35.5 34.5t37 21t35 10t25.5 4t11 0.5t11 -0.5
t25.5 -4t35 -10t37 -21t35.5 -34.5t25.5 -53t11.5 -74q3 -1 7.5 -4.5t10 -23t2.5 -48.5l5 -5q4 -4 13.5 -16t17.5 -24.5t16 -32.5t11 -40v-3q1 -4 0.5 -10.5t-1 -13.5t-2 -13.5t-4.5 -11t-7.5 -5.5t-10 2t-14.5 13.5t-19 27.5z" />
    <glyph glyph-name="uniE61F" unicode="&#xe61f;" 
d="M510 884q-101 0 -194 -39.5t-159.5 -106.5t-106.5 -159.5t-40 -194.5q0 -81 25.5 -157.5t71.5 -138t107.5 -108t138 -71.5t157.5 -25q102 0 194.5 39.5t159.5 106.5t106.5 159.5t39.5 194.5q0 207 -146.5 353.5t-353.5 146.5zM644 712q43 -18 79 -48q7 -6 14.5 -12.5
t14.5 -13.5q10 -11 20 -22.5t18.5 -24t15.5 -25.5q3 -4 5.5 -9t4.5 -10l-172 -175v340zM472 737q20 2 39 2q9 0 18 -0.5t18 -1.5t18 -2.5t17.5 -3t16.5 -4.5q12 -3 21 -6v-248q-6 9 -237 241q22 9 44 14.5t45 8.5zM242 607q13 16 26 29q31 32 70 55q10 6 20 11l172 -175
q-2 0 -14.5 0.5t-31.5 0.5h-46h-52q-28 0 -55 -0.5t-51 -0.5h-44h-30h-11q18 43 47 80zM170 352q-2 20 -2 39q0 46 12 90q1 5 2.5 10.5t3.5 10.5h244q-9 -6 -237 -240q-9 21 -14.5 43.5t-8.5 46.5zM297 118q-16 14 -29 26q-32 33 -54 72q-5 9 -10 20l172 175v-340
q-43 18 -79 47zM548 44q-19 -2 -38 -2q-45 0 -89 12q-10 3 -21 6v248q2 -2 15.5 -16t34.5 -35.5t46 -47t50 -50.5l46 -45q20 -21 32 -34l13 -13q-43 -17 -89 -23zM777 173q-2 -2 -3.5 -4t-3 -3.5t-2.5 -3.5l-4 -4l-2 -4l-4 -3q-2 -2 -3.5 -4t-3.5 -3q-11 -11 -22.5 -21
t-23.5 -18.5t-25 -15.5q-10 -6 -19 -11l-172 175h335q-18 -43 -47 -80zM840 300q0 -2 -0.5 -4t-1.5 -4t-1.5 -4.5t-1 -4.5t-1.5 -4h-244q2 1 16 15t35 35.5t46 47t50 50.5t45 46t32 33l13 13q6 -14 10.5 -28.5t7.5 -30t5 -31.5q2 -20 2 -39q0 -46 -12 -90z" />
    <glyph glyph-name="uniE620" unicode="&#xe620;" 
d="M585 44v402q0 14 7.5 23t18.5 11t21.5 0t18.5 -11t8 -23v-402q0 -22 -18.5 -31t-37 0t-18.5 31v0zM366 44v402q0 35 36.5 35t36.5 -35v-402q0 -22 -18.5 -31t-36.5 0t-18 31v0zM988 629h-183v73q0 46 -32 78t-77 32h-367q-46 0 -78 -32t-32 -78v-73h-183q-22 0 -31.5 -18
t0 -36.5t31.5 -18.5h952h2h2h2q25 4 29 31q4 28 -19 39h-1h-1v1h-1h-1l-1 1h-1h-1h-1l-1 1h-1h-1h-1h-1h-1h-1h-1v0zM292 702q0 15 11 26t26 11h367q15 0 25.5 -10.5t10.5 -26.5v-73h-440v73zM768 -212h-512q-46 0 -78 32t-32 78v548q0 11 5 19.5t13.5 13t17.5 4.5
q6 0 11.5 -2t10 -5t8 -7.5t5.5 -10t2 -12.5v-548q0 -6 2 -11.5t5.5 -10t8 -8t10 -5.5t11.5 -2h512q8 0 14.5 3t11.5 8t8 12t3 14v547q0 14 7.5 23.5t18.5 11.5t21.5 0t18 -11.5t7.5 -23.5v-547q0 -18 -5.5 -35t-15.5 -30.5t-23.5 -23.5t-30.5 -15.5t-35 -5.5zM768 -212z" />
    <glyph glyph-name="uniE621" unicode="&#xe621;" 
d="M764 -58h-126q-26 0 -44.5 18.5t-18.5 44.5v758q0 10 3 19.5t9 17.5t14 13.5t17.5 9t19.5 3.5h126q27 0 45.5 -18.5t18.5 -44.5v-758q0 -17 -8.5 -31.5t-23 -23t-32.5 -8.5zM386 -58h-126q-27 0 -45.5 18.5t-18.5 44.5v758q0 26 18.5 44.5t45.5 18.5h126q26 0 44.5 -18.5
t18.5 -44.5v-758q0 -26 -18.5 -44.5t-44.5 -18.5z" />
    <glyph glyph-name="uniE622" unicode="&#xe622;" 
d="M195 806l678 -383q23 -13 23 -39t-23 -39l-678 -383q-22 -13 -44.5 0t-22.5 39v766q0 26 22.5 39t44.5 0z" />
    <glyph glyph-name="uniE623" unicode="&#xe623;" 
d="M1024 384q0 -97 -35.5 -187t-101.5 -162h-1l-24 -24q-6 -5 -14 -5.5t-14 5.5q-31 27 -114 60q-18 7 -27.5 11t-25.5 11.5t-25 13.5t-19.5 14.5t-17.5 18.5t-11 21q-1 3 -1 6q-3 26 -2 69v19q0 12 10 18q3 1 6.5 6.5t8.5 14t9 18.5t7.5 22t4.5 23q1 5 3.5 9t6.5 6.5t9 2.5
v1q1 0 2 0.5t2 1.5l2 2q1 1 2 3l2 4q1 2 2 5t2 6.5t1.5 7.5t1.5 9q1 7 -1 13t-3 7.5t-2 1.5q-4 3 -6.5 7t-3 8.5t0.5 8.5q15 45 19 92q1 16 0.5 30.5t-2.5 27t-5.5 23t-9.5 19.5q-18 30 -59 35q-5 1 -9 3.5t-6 6.5q-14 26 -76 26q-93 -2 -132 -52q-25 -34 -27 -89
q-2 -27 2 -57.5t13 -65.5q4 -15 -9 -23q-8 -6 -6 -22q1 -9 3 -16.5t4 -11.5t4 -7t3.5 -4t2.5 -1q8 -1 13 -6t6 -12q2 -18 9.5 -37.5t15 -31.5t12.5 -15q10 -7 10 -18v-19q1 -9 1 -13.5t-0.5 -12.5t-0.5 -14t-0.5 -14t-1.5 -15v-3q0 -1 -1 -3q-5 -13 -15 -25t-20 -20
t-28 -17.5t-29.5 -14t-33.5 -13.5q-31 -12 -46 -19q-8 -3 -16 0t-11 10q-2 4 -2 8t1 8t4 7t7 4q16 8 48 20q31 12 46.5 19t32.5 19.5t23 25.5q0 6 0.5 11.5t0.5 11t0.5 9.5t0.5 10v10v10q0 3 -1 10q-14 14 -26.5 41t-18.5 53q-10 5 -18 15q-15 20 -19 56q-4 31 13 51
q-38 157 22 236q50 66 164 68q76 0 106 -38q26 -5 46 -18t33 -35q19 -31 22 -77.5t-2.5 -76.5t-13.5 -59q16 -21 12 -51q-4 -36 -19 -56q-8 -10 -18 -15q-6 -28 -19 -56q-13 -25 -25 -38v-10q-1 -39 1 -62q6 -13 23 -25.5t32.5 -19.5t46.5 -19q78 -31 112 -56l10 11
q41 43 69 95t42.5 109t14.5 116q0 48 -9.5 94t-27.5 89q-18 42 -43 80t-58 70q-22 22 -45.5 40.5t-50 33.5t-54.5 27q-11 5 -22 9t-22 7.5t-23 5.5l-22 6q-12 2 -23.5 4t-23 3t-23.5 1.5t-24 0.5q-96 0 -183 -37q-85 -36 -150 -101t-101 -150q-12 -29 -20.5 -59t-12.5 -61
t-4 -63q0 -96 37 -183q36 -85 101 -150t150 -101q43 -18 89 -27.5t94 -9.5q122 0 229 59q5 3 10 3t10 -3t8 -8q4 -7 1.5 -15.5t-9.5 -12.5q-57 -31 -120.5 -47.5t-128.5 -16.5q-104 0 -199 40q-92 39 -163 110t-110 163q-40 95 -40 199t40 199q39 92 110 163q35 35 76 62.5
t87 47.5q95 40 199 40q52 0 102 -10t97 -30q92 -39 163 -110q35 -35 62.5 -76t47.5 -87q40 -95 40 -199z" />
  </font>
</defs>
</svg>
